#!OML:ASF F:\VICON\USERDATA\INSTALL\rory3\rory3.ASF
:FULLY-SPECIFIED
:DEGREES
662
root -1.2118 17.6144 2.95232 3.28576 13.6873 -3.64264
lowerback 8.63487 1.09374 0.867091
upperback -0.649185 1.35286 -3.68076
thorax -5.42037 0.590138 -4.52454
lowerneck -28.9775 -15.2967 -12.6509
upperneck 2.68058 -18.6918 21.1237
head 8.77832 -7.22572 5.94308
rclavicle -1.98785e-014 2.54444e-014
rhumerus 47.0145 -43.5693 -37.6459
rradius 37.6431
rwrist 19.3339
rhand -64.0833 -16.7387
rfingers 7.12502
rthumb -36.0298 -43.0479
lclavicle -1.98785e-014 2.54444e-014
lhumerus -41.5028 11.9685 62.7748
lradius 55.0969
lwrist -2.64334
lhand -22.774 20.0267
lfingers 7.12502
lthumb 3.66133 49.975
rfemur -11.7002 -9.09017 20.5043
rtibia 32.483
rfoot -22.3481 -8.54538
rtoes 1.03849
lfemur -16.0073 -7.59023 -4.79884
ltibia 27.5139
lfoot -14.061 -2.16943
ltoes -21.3027
663
root -1.22385 17.6126 2.9503 3.32873 13.6963 -3.6314
lowerback 8.62813 1.00154 0.945084
upperback -0.597434 1.24945 -3.48013
thorax -5.37307 0.540888 -4.34149
lowerneck -29.0481 -15.4671 -12.664
upperneck 2.74994 -18.9215 21.0898
head 8.84388 -7.3275 5.87727
rclavicle 1.05356e-014 -1.27222e-014
rhumerus 47.2813 -44.5611 -38.5696
rradius 37.4518
rwrist 19.9974
rhand -63.6445 -17.5924
rfingers 7.12502
rthumb -35.6141 -44.0028
lclavicle 1.05356e-014 -1.27222e-014
lhumerus -41.5545 11.9697 63.0214
lradius 55.0656
lwrist -2.97077
lhand -22.7352 19.648
lfingers 7.12502
lthumb 3.69885 49.5957
rfemur -11.7927 -9.13895 20.5486
rtibia 32.5329
rfoot -22.3294 -8.48974
rtoes 1.20321
lfemur -16.0651 -7.65652 -4.77002
ltibia 27.5014
lfoot -14.0552 -1.93997
ltoes -21.522
664
root -1.23411 17.6124 2.94839 3.40799 13.6615 -3.54
lowerback 8.58643 0.920589 0.904561
upperback -0.569113 1.14782 -3.29107
thorax -5.33206 0.495346 -4.10351
lowerneck -28.785 -15.5496 -12.4992
upperneck 2.47368 -19.0538 20.9906
head 8.70162 -7.42733 5.79522
rclavicle 3.43897e-014 -3.18055e-015
rhumerus 47.9948 -45.6503 -40.2389
rradius 37.4703
rwrist 21.1741
rhand -62.9121 -16.8718
rfingers 7.12502
rthumb -34.9195 -43.4466
lclavicle 3.43897e-014 -3.18055e-015
lhumerus -41.7276 11.8236 63.3558
lradius 55.1275
lwrist -2.56107
lhand -22.2468 20.4012
lfingers 7.12502
lthumb 4.17043 50.3401
rfemur -11.9258 -9.06398 20.4992
rtibia 32.629
rfoot -22.3884 -8.46184
rtoes 1.51203
lfemur -16.1126 -7.7221 -4.83514
ltibia 27.4485
lfoot -13.9799 -1.76964
ltoes -21.527
665
root -1.24202 17.6161 2.94814 3.58298 13.5504 -3.40474
lowerback 8.46342 0.84971 0.83235
upperback -0.587166 1.0552 -3.11729
thorax -5.29261 0.45436 -3.86419
lowerneck -28.4649 -15.5616 -12.3426
upperneck 2.19741 -19.0841 20.8452
head 8.52931 -7.48871 5.72581
rclavicle -3.65764e-014 4.77083e-015
rhumerus 47.789 -46.2419 -40.7356
rradius 37.729
rwrist 21.0039
rhand -62.8175 -16.6846
rfingers 7.12502
rthumb -34.8298 -43.2802
lclavicle -3.65764e-014 4.77083e-015
lhumerus -41.9366 11.6375 63.7263
lradius 55.227
lwrist -1.88415
lhand -21.0215 21.9157
lfingers 7.12502
lthumb 5.35355 51.8281
rfemur -12.1802 -9.0715 20.3942
rtibia 32.7517
rfoot -22.352 -8.44628
rtoes 1.04629
lfemur -16.1845 -7.87744 -4.9519
ltibia 27.3825
lfoot -13.964 -1.43083
ltoes -21.5093
666
root -1.24695 17.6176 2.94991 3.66856 13.4665 -3.13942
lowerback 8.42117 0.765951 0.637715
upperback -0.554037 0.932399 -2.96587
thorax -5.24791 0.402147 -3.5769
lowerneck -28.2381 -15.6418 -12.387
upperneck 2.02267 -19.1771 20.8656
head 8.45837 -7.55574 5.72431
rclavicle 4.35338e-014 -1.59028e-014
rhumerus 46.963 -46.4868 -40.3364
rradius 37.8904
rwrist 19.8195
rhand -63.2598 -17.2321
rfingers 7.12502
rthumb -35.2493 -43.7295
lclavicle 4.35338e-014 -1.59028e-014
lhumerus -42.1198 11.5904 64.0653
lradius 55.3407
lwrist -1.74735
lhand -20.2685 22.6077
lfingers 7.12502
lthumb 6.08063 52.5004
rfemur -12.2609 -9.14223 20.1153
rtibia 32.8617
rfoot -22.3558 -8.29219
rtoes 1.02615
lfemur -16.1309 -7.99623 -5.24986
ltibia 27.3211
lfoot -13.948 -1.13433
ltoes -21.7603
667
root -1.24971 17.6185 2.95211 3.70502 13.3267 -2.90938
lowerback 8.41398 0.702144 0.464691
upperback -0.550904 0.837558 -2.81347
thorax -5.25109 0.362122 -3.30641
lowerneck -27.6839 -15.7504 -12.5409
upperneck 1.64003 -19.3152 21.1269
head 8.32462 -7.65689 5.81842
rclavicle 3.85642e-014 -1.90833e-014
rhumerus 47.2662 -47.1074 -41.4156
rradius 37.8422
rwrist 19.7391
rhand -63.2647 -16.4366
rfingers 7.12502
rthumb -35.254 -42.933
lclavicle 3.85642e-014 -1.90833e-014
lhumerus -42.3847 11.4687 64.3744
lradius 55.4457
lwrist -1.91625
lhand -20.3343 22.8197
lfingers 7.12502
lthumb 6.01705 52.7142
rfemur -12.2983 -9.13334 19.8637
rtibia 32.9708
rfoot -22.3939 -8.11606
rtoes 1.35016
lfemur -16.01 -8.04107 -5.51435
ltibia 27.2501
lfoot -13.937 -0.933379
ltoes -21.8795
668
root -1.25144 17.6197 2.95264 3.69997 13.1595 -2.78881
lowerback 8.46997 0.634905 0.416273
upperback -0.565893 0.750381 -2.64823
thorax -5.30612 0.321837 -3.09593
lowerneck -27.27 -15.9406 -12.4608
upperneck 1.55513 -19.6188 21.0034
head 8.25601 -7.84147 5.70817
rclavicle -4.79071e-014 -1.11319e-014
rhumerus 48.0034 -47.8625 -43.1641
rradius 37.9068
rwrist 20.4998
rhand -63.126 -16.4032
rfingers 7.12502
rthumb -35.1225 -42.9305
lclavicle -4.79071e-014 -1.11319e-014
lhumerus -42.7025 11.2033 64.6406
lradius 55.5119
lwrist -1.63235
lhand -21.1161 23.3949
lfingers 7.12502
lthumb 5.26228 53.3096
rfemur -12.342 -9.02632 19.7288
rtibia 33.0727
rfoot -22.4257 -8.06935
rtoes 1.62349
lfemur -15.8381 -8.16604 -5.66377
ltibia 27.1669
lfoot -13.9205 -0.639292
ltoes -21.8328
669
root -1.25148 17.6201 2.95491 3.71456 12.9865 -2.58311
lowerback 8.51492 0.591938 0.276516
upperback -0.578619 0.684519 -2.52177
thorax -5.35142 0.294423 -2.87689
lowerneck -27.0993 -16.1591 -12.1364
upperneck 1.83256 -20.0149 20.4944
head 8.27433 -8.0644 5.40717
rclavicle -9.54166e-015 -2.06736e-014
rhumerus 48.2175 -48.4983 -44.3911
rradius 38.0929
rwrist 21.1899
rhand -63.2478 -17.1402
rfingers 7.12502
rthumb -35.238 -43.6403
lclavicle -9.54166e-015 -2.06736e-014
lhumerus -42.945 11.0767 64.8044
lradius 55.5164
lwrist -1.77677
lhand -22.4795 23.489
lfingers 7.12502
lthumb 3.94578 53.4322
rfemur -12.3884 -8.92381 19.4963
rtibia 33.1865
rfoot -22.421 -8.09933
rtoes 1.40973
lfemur -15.665 -8.29408 -5.92219
ltibia 27.0607
lfoot -13.8981 -0.31973
ltoes -21.828
670
root -1.25095 17.6208 2.95751 3.7574 12.8643 -2.42315
lowerback 8.48838 0.51401 0.200969
upperback -0.571794 0.579956 -2.39298
thorax -5.33639 0.24691 -2.68507
lowerneck -26.7513 -16.3281 -12.0687
upperneck 1.82058 -20.2916 20.384
head 8.23678 -8.22735 5.30981
rclavicle -5.56597e-015 2.38542e-015
rhumerus 48.5916 -49.0886 -45.7773
rradius 38.2092
rwrist 21.6643
rhand -63.404 -16.8779
rfingers 7.12502
rthumb -35.3861 -43.3429
lclavicle -5.56597e-015 2.38542e-015
lhumerus -43.1626 11.1203 64.8432
lradius 55.4876
lwrist -2.46228
lhand -23.1947 22.2459
lfingers 7.12502
lthumb 3.25509 52.2008
rfemur -12.4584 -8.88132 19.3132
rtibia 33.2948
rfoot -22.4013 -7.97284
rtoes 1.73901
lfemur -15.5557 -8.33616 -6.11695
ltibia 26.9448
lfoot -13.8703 -0.121715
ltoes -21.6681
671
root -1.24955 17.6215 2.95941 3.79144 12.7464 -2.15133
lowerback 8.50541 0.425673 0.0201084
upperback -0.536158 0.450319 -2.27524
thorax -5.31686 0.190049 -2.44263
lowerneck -26.3368 -16.4684 -12.0765
upperneck 1.57551 -20.4809 20.3595
head 8.11836 -8.35942 5.27718
rclavicle -5.96354e-015 -1.59028e-015
rhumerus 49.3648 -49.6734 -47.5459
rradius 38.2579
rwrist 21.8843
rhand -63.4913 -16.2486
rfingers 7.12502
rthumb -35.4689 -42.6938
lclavicle -5.96354e-015 -1.59028e-015
lhumerus -43.3988 11.1414 64.978
lradius 55.4894
lwrist -2.76993
lhand -22.7847 21.883
lfingers 7.12502
lthumb 3.65103 51.8314
rfemur -12.4945 -8.82952 19.0024
rtibia 33.433
rfoot -22.4314 -7.83812
rtoes 2.01745
lfemur -15.4083 -8.35043 -6.43996
ltibia 26.7919
lfoot -13.7841 0.0210129
ltoes -21.7697
672
root -1.24619 17.6214 2.96137 3.72587 12.5957 -1.96123
lowerback 8.55688 0.363997 -0.0931919
upperback -0.508211 0.363388 -2.13985
thorax -5.32161 0.152304 -2.2261
lowerneck -25.8892 -16.6168 -12.0628
upperneck 1.47413 -20.7012 20.2252
head 8.02853 -8.50979 5.20013
rclavicle -5.1684e-015 7.15625e-015
rhumerus 49.6856 -50.1521 -48.8129
rradius 38.401
rwrist 21.7469
rhand -63.3835 -15.8218
rfingers 7.12502
rthumb -35.3666 -42.2914
lclavicle -5.1684e-015 7.15625e-015
lhumerus -43.6505 11.0916 65.1468
lradius 55.3929
lwrist -2.78316
lhand -22.4251 22.2585
lfingers 7.12502
lthumb 3.99827 52.2008
rfemur -12.4301 -8.8088 18.7627
rtibia 33.5468
rfoot -22.4598 -7.78566
rtoes 1.19632
lfemur -15.1669 -8.31329 -6.69823
ltibia 26.6521
lfoot -13.7227 0.110174
ltoes -21.9309
673
root -1.23938 17.6228 2.96099 3.67288 12.3938 -1.76562
lowerback 8.60605 0.30618 -0.165197
upperback -0.507969 0.282759 -2.05305
thorax -5.3528 0.115545 -2.08483
lowerneck -25.5728 -16.7404 -12.2508
upperneck 1.62973 -20.9123 20.3937
head 8.11077 -8.61102 5.24054
rclavicle -2.56432e-014 -2.38542e-015
rhumerus 49.8833 -50.535 -50.0451
rradius 38.4886
rwrist 21.7381
rhand -63.4718 -16.7368
rfingers 7.12502
rthumb -35.4504 -43.1865
lclavicle -2.56432e-014 -2.38542e-015
lhumerus -43.9606 10.938 65.2515
lradius 55.4125
lwrist -2.7048
lhand -22.853 21.5526
lfingers 7.12502
lthumb 3.58501 51.5022
rfemur -12.3759 -8.84035 18.504
rtibia 33.6262
rfoot -22.4525 -7.71626
rtoes 0.441287
lfemur -14.903 -8.31444 -6.96704
ltibia 26.5378
lfoot -13.7333 0.206302
ltoes -21.7113
